<svg width="40" height="40" viewBox="0 0 40 40" fill="none" xmlns="http://www.w3.org/2000/svg">
<defs>
  <linearGradient id="sGrad" x1="18" y1="7" x2="22" y2="34" gradientUnits="userSpaceOnUse">
    <stop offset="0%" stop-color="#4DE8F4"/>
    <stop offset="30%" stop-color="#3DAFE7"/>
    <stop offset="55%" stop-color="#5B7CF7"/>
    <stop offset="100%" stop-color="#9B4DCA"/>
  </linearGradient>
  <radialGradient id="bgGrad" cx="20" cy="18" r="22" gradientUnits="userSpaceOnUse">
    <stop offset="0%" stop-color="#1E2A4A"/>
    <stop offset="100%" stop-color="#0D0F1A"/>
  </radialGradient>
</defs>
<path opacity="0.95" d="M20.0557 39.9666C8.91365 39.9666 0 31.2241 0 20.2958C0 9.47687 8.91365 0.625 20.0557 0.625H32.6462C36.7688 0.625 40 3.90347 40 7.83763V20.2958C40 31.2241 31.0863 39.9666 20.0557 39.9666Z" fill="url(#bgGrad)"/>
<circle cx="26.2" cy="13.0" r="0.65" fill="#4DE8A0" opacity="0.85"/>
<circle cx="12.5" cy="16.5" r="0.4" fill="#AACCFF" opacity="0.45"/>
<circle cx="28.5" cy="27" r="0.35" fill="#AACCFF" opacity="0.35"/>
<circle cx="14.5" cy="28.5" r="0.4" fill="#AACCFF" opacity="0.3"/>
<circle cx="30" cy="18" r="0.3" fill="#AACCFF" opacity="0.25"/>
<path d="
  M26.5 8.5
  C28.5 8.2 30.5 9.5 30.0 11.5
  C29.5 13.5 26.0 13.8 23.0 13.0
  C20.0 12.2 18.0 12.5 17.5 13.5
  C16.8 14.8 19.0 16.0 21.5 17.0
  C24.5 18.2 28.5 19.5 28.0 22.5
  C27.5 25.5 24.0 27.5 21.0 28.5
  C18.0 29.5 15.5 30.5 13.5 32.0
  C12.0 33.0 11.0 31.5 12.5 30.0
  C14.0 28.5 17.5 27.0 20.5 26.0
  C23.5 25.0 25.5 23.5 25.0 22.0
  C24.5 20.5 22.0 19.8 19.0 18.8
  C16.0 17.8 12.0 16.5 12.5 13.5
  C13.0 10.5 16.0 9.5 19.0 9.5
  C22.0 9.5 24.5 8.8 26.5 8.5
  Z
" fill="url(#sGrad)"/>
</svg>
